<svg width="271" height="200" viewBox="0 0 271 200" fill="none" xmlns="http://www.w3.org/2000/svg">
<line x1="0.25" y1="1.09278e-08" x2="0.249991" y2="200" stroke="#E3008C" stroke-width="0.5"/>
<line x1="15.25" y1="1.09278e-08" x2="15.25" y2="200" stroke="#E3008C" stroke-width="0.5"/>
<line x1="30.25" y1="1.09278e-08" x2="30.25" y2="200" stroke="#E3008C" stroke-width="0.5"/>
<line x1="45.25" y1="1.09278e-08" x2="45.25" y2="200" stroke="#E3008C" stroke-width="0.5"/>
<line x1="60.25" y1="1.09278e-08" x2="60.25" y2="200" stroke="#E3008C" stroke-width="0.5"/>
<line x1="75.25" y1="1.09278e-08" x2="75.25" y2="200" stroke="#E3008C" stroke-width="0.5"/>
<line x1="90.25" y1="1.09278e-08" x2="90.25" y2="200" stroke="#E3008C" stroke-width="0.5"/>
<line x1="105.25" y1="1.09278e-08" x2="105.25" y2="200" stroke="#E3008C" stroke-width="0.5"/>
<line x1="120.25" y1="1.09278e-08" x2="120.25" y2="200" stroke="#E3008C" stroke-width="0.5"/>
<line x1="135.25" y1="1.09278e-08" x2="135.25" y2="200" stroke="#E3008C" stroke-width="0.5"/>
<line x1="150.25" y1="1.09278e-08" x2="150.25" y2="200" stroke="#E3008C" stroke-width="0.5"/>
<line x1="165.25" y1="1.09278e-08" x2="165.25" y2="200" stroke="#E3008C" stroke-width="0.5"/>
<line x1="180.25" y1="1.09278e-08" x2="180.25" y2="200" stroke="#E3008C" stroke-width="0.5"/>
<line x1="195.25" y1="1.09278e-08" x2="195.25" y2="200" stroke="#E3008C" stroke-width="0.5"/>
<line x1="210.25" y1="1.09278e-08" x2="210.25" y2="200" stroke="#E3008C" stroke-width="0.5"/>
<line x1="225.25" y1="1.09278e-08" x2="225.25" y2="200" stroke="#E3008C" stroke-width="0.5"/>
<line x1="240.25" y1="1.09278e-08" x2="240.25" y2="200" stroke="#E3008C" stroke-width="0.5"/>
<line x1="255.25" y1="1.09278e-08" x2="255.25" y2="200" stroke="#E3008C" stroke-width="0.5"/>
<line x1="270.25" y1="1.09278e-08" x2="270.25" y2="200" stroke="#E3008C" stroke-width="0.5"/>
</svg>
