<svg width="108" height="49" viewBox="0 0 108 49" fill="none" xmlns="http://www.w3.org/2000/svg">
<path d="M20 3.77856H0.799988V22.7935H20V3.77856Z" fill="#0060F9"/>
<path d="M20 22.7935H0.799988V41.8084H20V22.7935Z" fill="#E3008C"/>
<path d="M12.7018 22.6108H7.92437L0.84375 3.84155H6.17397L11.4252 18.9482L16.1764 3.84155H19.414L12.7018 22.6108Z" fill="white"/>
<path d="M25.2096 8.28499C25.2096 8.51116 25.1646 8.72544 25.0744 8.92778C24.9903 9.13018 24.8731 9.3057 24.7228 9.45453C24.5726 9.6033 24.3953 9.72233 24.191 9.81161C23.9867 9.89492 23.7703 9.93661 23.542 9.93661C23.3136 9.93661 23.0972 9.89492 22.8929 9.81161C22.6946 9.72233 22.5203 9.6033 22.3701 9.45453C22.2198 9.3057 22.0996 9.13018 22.0095 8.92778C21.9254 8.72544 21.8833 8.51116 21.8833 8.28499C21.8833 8.05882 21.9254 7.84759 22.0095 7.65116C22.0996 7.44882 22.2198 7.27324 22.3701 7.12441C22.5203 6.97564 22.6946 6.8596 22.8929 6.77629C23.0972 6.68701 23.3136 6.64233 23.542 6.64233C23.7703 6.64233 23.9867 6.68701 24.191 6.77629C24.3953 6.8596 24.5726 6.97564 24.7228 7.12441C24.8731 7.27324 24.9903 7.44882 25.0744 7.65116C25.1646 7.84759 25.2096 8.05882 25.2096 8.28499ZM25.0744 21.0871H22.0185V10.7847H25.0744V21.0871ZM32.9891 21.0871H30.2487L26.4627 10.7758H29.5095L32.2859 18.9891L34.9812 10.7758H37.0907L32.9891 21.0871ZM41.5798 8.28499C41.5798 8.51116 41.5347 8.72544 41.4446 8.92778C41.3604 9.13018 41.2433 9.3057 41.0931 9.45453C40.9428 9.6033 40.7655 9.72233 40.5612 9.81161C40.3569 9.89492 40.1405 9.93661 39.9121 9.93661C39.6838 9.93661 39.4675 9.89492 39.2631 9.81161C39.0648 9.72233 38.8905 9.6033 38.7403 9.45453C38.59 9.3057 38.4699 9.13018 38.3797 8.92778C38.2956 8.72544 38.2535 8.51116 38.2535 8.28499C38.2535 8.05882 38.2956 7.84759 38.3797 7.65116C38.4699 7.44882 38.59 7.27324 38.7403 7.12441C38.8905 6.97564 39.0648 6.8596 39.2631 6.77629C39.4675 6.68701 39.6838 6.64233 39.9121 6.64233C40.1405 6.64233 40.3569 6.68701 40.5612 6.77629C40.7655 6.8596 40.9428 6.97564 41.0931 7.12441C41.2433 7.27324 41.3604 7.44882 41.4446 7.65116C41.5347 7.84759 41.5798 8.05882 41.5798 8.28499ZM41.4446 21.0871H38.3887V10.7847H41.4446V21.0871ZM54.4885 21.0871H51.4416V19.8551C51.081 20.3431 50.6453 20.7062 50.1345 20.9442C49.6297 21.1764 49.0738 21.2924 48.4668 21.2924C47.6735 21.2924 46.9644 21.1526 46.3395 20.8728C45.7144 20.5931 45.1856 20.2122 44.7529 19.7301C44.3202 19.2421 43.9897 18.6707 43.7613 18.016C43.5329 17.3613 43.4188 16.6591 43.4188 15.9091C43.4188 15.1592 43.5329 14.4569 43.7613 13.8022C43.9897 13.1476 44.3202 12.5791 44.7529 12.0971C45.1856 11.609 45.7144 11.2252 46.3395 10.9454C46.9644 10.6657 47.6735 10.5258 48.4668 10.5258C48.8695 10.5258 49.2511 10.5854 49.6116 10.7044C49.9782 10.8234 50.3118 10.993 50.6123 11.2132C50.9188 11.4275 51.1862 11.6894 51.4145 11.9989C51.6489 12.3024 51.8322 12.6417 51.9644 13.0166L53.3166 10.7758H54.4885V21.0871ZM51.4236 15.9091C51.4236 15.6413 51.4086 15.3586 51.3785 15.061C51.3545 14.7634 51.3094 14.4688 51.2433 14.1772C51.1772 13.8856 51.084 13.6088 50.9638 13.3469C50.8497 13.0791 50.6994 12.844 50.5131 12.6417C50.3328 12.4334 50.1135 12.2697 49.8551 12.1506C49.5966 12.0316 49.2961 11.9721 48.9536 11.9721C48.6111 11.9721 48.3136 12.0346 48.0612 12.1596C47.8088 12.2786 47.5924 12.4423 47.4121 12.6506C47.2319 12.853 47.0816 13.088 46.9614 13.3559C46.8473 13.6237 46.7571 13.9034 46.691 14.195C46.6249 14.4867 46.5768 14.7813 46.5468 15.0789C46.5227 15.3705 46.5107 15.6472 46.5107 15.9091C46.5107 16.171 46.5227 16.4507 46.5468 16.7483C46.5768 17.0459 46.6249 17.3405 46.691 17.6322C46.7571 17.9238 46.8473 18.2035 46.9614 18.4713C47.0816 18.7392 47.2319 18.9772 47.4121 19.1855C47.5924 19.3879 47.8088 19.5516 48.0612 19.6765C48.3136 19.7956 48.6111 19.8551 48.9536 19.8551C49.2661 19.8551 49.5425 19.7926 49.783 19.6676C50.0294 19.5367 50.2427 19.3641 50.423 19.1498C50.6092 18.9355 50.7655 18.6915 50.8917 18.4178C51.0179 18.144 51.1201 17.8613 51.1982 17.5696C51.2763 17.278 51.3334 16.9894 51.3695 16.7037C51.4055 16.412 51.4236 16.1472 51.4236 15.9091ZM67.6855 15.177C67.6855 15.8734 67.5982 16.5995 67.424 17.3554C67.256 18.1113 67.0185 18.8522 66.712 19.5783C66.4055 20.3044 66.0388 20.9859 65.6123 21.6227C65.1858 22.2655 64.7169 22.819 64.2062 23.2833L63.0609 22.6673C63.2234 22.3697 63.3766 22.0364 63.5206 21.6674C63.6652 21.2984 63.7945 20.9085 63.9083 20.4979C64.0289 20.0813 64.1342 19.6527 64.224 19.2123C64.32 18.7719 64.3982 18.3374 64.4585 17.9089C64.5243 17.4744 64.5723 17.0548 64.6025 16.6501C64.6388 16.2394 64.6566 15.8585 64.6566 15.5074C64.6566 15.2753 64.648 15.0283 64.6295 14.7664C64.6117 14.4986 64.5723 14.2337 64.5126 13.9719C64.4585 13.704 64.3834 13.4481 64.2874 13.2041C64.1908 12.96 64.0615 12.7458 63.8997 12.5613C63.7434 12.3768 63.5508 12.228 63.3225 12.1149C63.1003 12.0019 62.8357 11.9453 62.5292 11.9453C62.2289 11.9453 61.9612 12.0137 61.7268 12.1506C61.4927 12.2816 61.2854 12.4571 61.105 12.6774C60.9247 12.8916 60.7685 13.1386 60.6363 13.4184C60.5101 13.6981 60.4049 13.9867 60.3208 14.2843C60.2427 14.5759 60.1856 14.8646 60.1495 15.1503C60.1135 15.4359 60.0955 15.6919 60.0955 15.9181V21.0871H57.0396V10.7758H58.2115L59.6087 13.1773C59.7769 12.7785 59.9873 12.4155 60.2397 12.0882C60.4921 11.7608 60.7775 11.4811 61.0961 11.2489C61.4145 11.0169 61.7662 10.8383 62.1508 10.7133C62.5415 10.5883 62.9618 10.5258 63.4129 10.5258C64.1342 10.5258 64.7618 10.6419 65.2966 10.874C65.8314 11.1061 66.2763 11.4305 66.6308 11.8471C66.9852 12.2578 67.2499 12.7488 67.424 13.3202C67.5982 13.8856 67.6855 14.5045 67.6855 15.177ZM85.4172 21.0871H84.2449L82.8929 18.8463C82.7606 19.2213 82.5772 19.5605 82.3428 19.864C82.1145 20.1676 81.8474 20.4294 81.5409 20.6496C81.24 20.8639 80.9065 21.0305 80.5403 21.1496C80.1797 21.2687 79.7982 21.3281 79.3951 21.3281C78.6019 21.3281 77.8929 21.1883 77.2677 20.9085C76.6431 20.6288 76.1138 20.2479 75.6812 19.7658C75.2486 19.2778 74.9182 18.7065 74.6898 18.0517C74.4615 17.397 74.3471 16.6948 74.3471 15.9448C74.3471 15.1949 74.4615 14.4926 74.6898 13.838C74.9182 13.1832 75.2486 12.6148 75.6812 12.1328C76.1138 11.6507 76.6431 11.2698 77.2677 10.99C77.8929 10.7103 78.6019 10.5704 79.3951 10.5704C80.0025 10.5704 80.5582 10.6865 81.0628 10.9186C81.5735 11.1508 82.0092 11.5138 82.3699 12.0078V6.98162H85.4172V21.0871ZM82.352 15.9448C82.352 15.7068 82.3342 15.4449 82.2978 15.1592C82.2622 14.8735 82.2049 14.5849 82.1268 14.2932C82.0486 14.0016 81.9465 13.7189 81.8203 13.4451C81.6942 13.1713 81.5378 12.9273 81.3514 12.7131C81.1711 12.4988 80.9575 12.3292 80.7114 12.2042C80.4708 12.0733 80.1945 12.0078 79.8818 12.0078C79.5397 12.0078 79.2418 12.0703 78.9895 12.1953C78.7372 12.3143 78.5206 12.478 78.3409 12.6863C78.1606 12.8887 78.0098 13.1237 77.8898 13.3915C77.776 13.6594 77.6855 13.9391 77.6197 14.2308C77.5532 14.5224 77.5052 14.817 77.4751 15.1146C77.4511 15.4062 77.4394 15.683 77.4394 15.9448C77.4394 16.2067 77.4511 16.4865 77.4751 16.7841C77.5052 17.0757 77.5532 17.3673 77.6197 17.6589C77.6855 17.9505 77.776 18.2333 77.8898 18.507C78.0098 18.7749 78.1606 19.0129 78.3409 19.2213C78.5206 19.4236 78.7372 19.5873 78.9895 19.7122C79.2418 19.8313 79.5397 19.8908 79.8818 19.8908C80.2246 19.8908 80.5249 19.8313 80.7834 19.7122C81.0418 19.5932 81.2615 19.4326 81.4419 19.2302C81.6277 19.0218 81.7779 18.7868 81.8923 18.5249C82.0123 18.257 82.1059 17.9774 82.1717 17.6857C82.2382 17.3881 82.2831 17.0905 82.3071 16.793C82.3372 16.4954 82.352 16.2127 82.352 15.9448ZM98.4431 21.0871H95.3957V19.8551C95.0351 20.3431 94.5994 20.7062 94.0886 20.9442C93.584 21.1764 93.0283 21.2924 92.4209 21.2924C91.6277 21.2924 90.9188 21.1526 90.2935 20.8728C89.6689 20.5931 89.1397 20.2122 88.7071 19.7301C88.2745 19.2421 87.944 18.6707 87.7157 18.016C87.4874 17.3613 87.3729 16.6591 87.3729 15.9091C87.3729 15.1592 87.4874 14.4569 87.7157 13.8022C87.944 13.1476 88.2745 12.5791 88.7071 12.0971C89.1397 11.609 89.6689 11.2252 90.2935 10.9454C90.9188 10.6657 91.6277 10.5258 92.4209 10.5258C92.824 10.5258 93.2055 10.5854 93.5662 10.7044C93.9323 10.8234 94.2658 10.993 94.5668 11.2132C94.8732 11.4275 95.1403 11.6894 95.3686 11.9989C95.6031 12.3024 95.7865 12.6417 95.9188 13.0166L97.2708 10.7758H98.4431V21.0871ZM95.3779 15.9091C95.3779 15.6413 95.3631 15.3586 95.3329 15.061C95.3089 14.7634 95.264 14.4688 95.1975 14.1772C95.1317 13.8856 95.0382 13.6088 94.9182 13.3469C94.8037 13.0791 94.6535 12.844 94.4677 12.6417C94.2874 12.4334 94.0677 12.2697 93.8092 12.1506C93.5508 12.0316 93.2505 11.9721 92.9077 11.9721C92.5655 11.9721 92.2677 12.0346 92.0154 12.1596C91.7631 12.2786 91.5465 12.4423 91.3668 12.6506C91.1865 12.853 91.0357 13.088 90.9157 13.3559C90.8019 13.6237 90.7114 13.9034 90.6455 14.195C90.5791 14.4867 90.5311 14.7813 90.5009 15.0789C90.4769 15.3705 90.4652 15.6472 90.4652 15.9091C90.4652 16.171 90.4769 16.4507 90.5009 16.7483C90.5311 17.0459 90.5791 17.3405 90.6455 17.6322C90.7114 17.9238 90.8019 18.2035 90.9157 18.4713C91.0357 18.7392 91.1865 18.9772 91.3668 19.1855C91.5465 19.3879 91.7631 19.5516 92.0154 19.6765C92.2677 19.7956 92.5655 19.8551 92.9077 19.8551C93.2203 19.8551 93.4966 19.7926 93.7372 19.6676C93.9834 19.5367 94.1969 19.3641 94.3772 19.1498C94.5637 18.9355 94.72 18.6915 94.8462 18.4178C94.9723 18.144 95.0745 17.8613 95.1526 17.5696C95.2308 17.278 95.288 16.9894 95.3237 16.7037C95.36 16.412 95.3779 16.1472 95.3779 15.9091Z" fill="#0060F9"/>
<path d="M21.4777 35.9355C21.4777 35.4653 21.5167 34.9773 21.5948 34.4714C21.679 33.9655 21.7962 33.4596 21.9464 32.9537C22.1026 32.4478 22.2889 31.9479 22.5053 31.4539C22.7217 30.9599 22.965 30.4867 23.2354 30.0344H25.462C25.3118 30.4808 25.1766 30.948 25.0564 31.4361C24.9422 31.9181 24.843 32.4032 24.7589 32.8913C24.6807 33.3733 24.6177 33.8464 24.5696 34.3107C24.5275 34.7749 24.5065 35.2064 24.5065 35.6052C24.5065 35.8373 24.5155 36.0873 24.5335 36.3551C24.5576 36.617 24.5966 36.8818 24.6507 37.1497C24.7048 37.4115 24.7799 37.6645 24.8761 37.9085C24.9782 38.1525 25.1074 38.3697 25.2637 38.5602C25.4199 38.7447 25.6092 38.8935 25.8316 39.0066C26.06 39.1137 26.3274 39.1673 26.6339 39.1673C26.9344 39.1673 27.2018 39.1018 27.4362 38.9708C27.6766 38.834 27.8869 38.6584 28.0672 38.4442C28.2474 38.224 28.4007 37.974 28.5269 37.6942C28.6531 37.4145 28.7553 37.1288 28.8334 36.8372C28.9175 36.5396 28.9777 36.2509 29.0137 35.9712C29.0558 35.6855 29.0768 35.4296 29.0768 35.2035V30.0344H32.1237V40.3457H30.9518L29.5546 37.9442C29.3803 38.343 29.167 38.706 28.9145 39.0334C28.6681 39.3547 28.3857 39.6315 28.0672 39.8636C27.7487 40.0957 27.3941 40.2743 27.0035 40.3993C26.6189 40.5243 26.2012 40.5868 25.7505 40.5868C25.0294 40.5868 24.4013 40.4707 23.8665 40.2386C23.3316 40.0065 22.8869 39.6851 22.5323 39.2744C22.1778 38.8638 21.9134 38.3757 21.7391 37.8103C21.5648 37.2389 21.4777 36.614 21.4777 35.9355ZM45.3118 34.4357C45.3118 35.132 45.2246 35.8581 45.0503 36.614C44.8821 37.3699 44.6447 38.1109 44.3382 38.837C44.0318 39.5631 43.6652 40.2445 43.2385 40.8814C42.8118 41.5242 42.343 42.0777 41.8322 42.5419L40.6874 41.9259C40.8497 41.6283 41.0029 41.295 41.1471 40.926C41.2913 40.557 41.4206 40.1671 41.5347 39.7565C41.655 39.3399 41.7601 38.9114 41.8502 38.4709C41.9464 38.0305 42.0245 37.596 42.0846 37.1675C42.1507 36.7331 42.1988 36.3135 42.2289 35.9087C42.2649 35.4981 42.283 35.1172 42.283 34.766C42.283 34.5339 42.2739 34.2869 42.2559 34.025C42.2378 33.7572 42.1988 33.4924 42.1387 33.2305C42.0846 32.9626 42.0095 32.7067 41.9134 32.4627C41.8172 32.2187 41.688 32.0044 41.5257 31.8199C41.3695 31.6354 41.1772 31.4866 40.9488 31.3735C40.7265 31.2605 40.462 31.2039 40.1555 31.2039C39.8551 31.2039 39.5876 31.2724 39.3532 31.4092C39.1189 31.5402 38.9115 31.7157 38.7313 31.936C38.551 32.1502 38.3947 32.3972 38.2625 32.677C38.1363 32.9567 38.0311 33.2453 37.947 33.5429C37.8689 33.8346 37.8118 34.1232 37.7757 34.4089C37.7397 34.6946 37.7217 34.9505 37.7217 35.1767V40.3457H34.6657V30.0344H35.8376L37.2348 32.4359C37.4031 32.0372 37.6135 31.6741 37.8658 31.3468C38.1183 31.0194 38.4038 30.7397 38.7222 30.5076C39.0407 30.2755 39.3923 30.0969 39.7769 29.9719C40.1676 29.8469 40.5882 29.7844 41.039 29.7844C41.7601 29.7844 42.3881 29.9005 42.923 30.1326C43.4578 30.3647 43.9025 30.6891 44.2571 31.1057C44.6116 31.5164 44.8761 32.0074 45.0503 32.5788C45.2246 33.1442 45.3118 33.7631 45.3118 34.4357ZM57.968 34.4357C57.968 35.132 57.8809 35.8581 57.7066 36.614C57.5383 37.3699 57.301 38.1109 56.9945 38.837C56.688 39.5631 56.3214 40.2445 55.8947 40.8814C55.468 41.5242 54.9993 42.0777 54.4885 42.5419L53.3436 41.9259C53.5059 41.6283 53.6591 41.295 53.8034 40.926C53.9476 40.557 54.0768 40.1671 54.191 39.7565C54.3112 39.3399 54.4164 38.9114 54.5065 38.4709C54.6026 38.0305 54.6807 37.596 54.7409 37.1675C54.807 36.7331 54.8551 36.3135 54.8851 35.9087C54.9212 35.4981 54.9392 35.1172 54.9392 34.766C54.9392 34.5339 54.9302 34.2869 54.9121 34.025C54.8941 33.7572 54.8551 33.4924 54.795 33.2305C54.7409 32.9626 54.6657 32.7067 54.5696 32.4627C54.4734 32.2187 54.3442 32.0044 54.182 31.8199C54.0257 31.6354 53.8334 31.4866 53.605 31.3735C53.3827 31.2605 53.1183 31.2039 52.8118 31.2039C52.5113 31.2039 52.2439 31.2724 52.0095 31.4092C51.7751 31.5402 51.5678 31.7157 51.3875 31.936C51.2072 32.1502 51.051 32.3972 50.9188 32.677C50.7926 32.9567 50.6874 33.2453 50.6033 33.5429C50.5251 33.8346 50.468 34.1232 50.432 34.4089C50.3959 34.6946 50.3779 34.9505 50.3779 35.1767V40.3457H47.322V26.2402H50.3689V31.5521C50.7595 30.9867 51.2372 30.5522 51.8022 30.2487C52.373 29.9392 53.0041 29.7844 53.6952 29.7844C54.4164 29.7844 55.0444 29.9005 55.5792 30.1326C56.1141 30.3647 56.5588 30.6891 56.9133 31.1057C57.2679 31.5164 57.5323 32.0074 57.7066 32.5788C57.8809 33.1442 57.968 33.7631 57.968 34.4357ZM70.4622 40.3457H67.4154V39.1137C67.0548 39.6018 66.6191 39.9648 66.1083 40.2029C65.6031 40.435 65.0474 40.551 64.4406 40.551C63.6474 40.551 62.9378 40.4112 62.3132 40.1314C61.688 39.8518 61.1591 39.4708 60.7265 38.9887C60.2937 38.5007 59.9632 37.9294 59.7348 37.2746C59.5065 36.6199 59.3923 35.9177 59.3923 35.1677C59.3923 34.4178 59.5065 33.7155 59.7348 33.0609C59.9632 32.4062 60.2937 31.8378 60.7265 31.3557C61.1591 30.8676 61.688 30.4838 62.3132 30.2041C62.9378 29.9243 63.6474 29.7844 64.4406 29.7844C64.8431 29.7844 65.2246 29.844 65.5852 29.963C65.952 30.082 66.2855 30.2517 66.5858 30.4718C66.8923 30.6861 67.16 30.948 67.3883 31.2575C67.6228 31.561 67.8055 31.9003 67.9378 32.2752L69.2898 30.0344H70.4622V40.3457ZM67.3969 35.1677C67.3969 34.8999 67.3822 34.6172 67.352 34.3196C67.328 34.022 67.2831 33.7274 67.2166 33.4358C67.1508 33.1442 67.0578 32.8674 66.9372 32.6055C66.8234 32.3377 66.6732 32.1026 66.4868 31.9003C66.3065 31.692 66.0868 31.5283 65.8283 31.4092C65.5705 31.2902 65.2695 31.2307 64.9274 31.2307C64.5846 31.2307 64.2874 31.2932 64.0345 31.4182C63.7822 31.5372 63.5662 31.7009 63.3858 31.9092C63.2055 32.1116 63.0554 32.3466 62.9348 32.6145C62.8209 32.8823 62.7305 33.162 62.6646 33.4537C62.5981 33.7453 62.5502 34.0399 62.5206 34.3375C62.496 34.6291 62.4843 34.9059 62.4843 35.1677C62.4843 35.4296 62.496 35.7094 62.5206 36.007C62.5502 36.3045 62.5981 36.5991 62.6646 36.8908C62.7305 37.1824 62.8209 37.4622 62.9348 37.7299C63.0554 37.9978 63.2055 38.2359 63.3858 38.4442C63.5662 38.6465 63.7822 38.8102 64.0345 38.9351C64.2874 39.0542 64.5846 39.1137 64.9274 39.1137C65.2394 39.1137 65.5163 39.0512 65.7563 38.9262C66.0031 38.7953 66.216 38.6227 66.3963 38.4084C66.5828 38.1942 66.7391 37.9501 66.8652 37.6764C66.9914 37.4026 67.0935 37.1199 67.1717 36.8283C67.2498 36.5366 67.3071 36.248 67.3428 35.9623C67.3791 35.6707 67.3969 35.4058 67.3969 35.1677Z" fill="#E3008C"/>
<path d="M19.3599 27.2658L17.1094 28.2042C16.9339 27.6395 16.697 27.1224 16.3987 26.6532C16.1091 26.184 15.7582 25.7842 15.3458 25.454C14.9422 25.1152 14.4815 24.8544 13.9639 24.672C13.4462 24.4808 12.8803 24.3852 12.2661 24.3852C11.6081 24.3852 11.0026 24.4938 10.4499 24.7111C9.90591 24.9196 9.41452 25.2107 8.97581 25.5844C8.54591 25.958 8.16861 26.3925 7.844 26.8878C7.51932 27.3831 7.24738 27.9132 7.028 28.4779C6.80867 29.0341 6.64634 29.6119 6.54104 30.2115C6.43575 30.8111 6.38314 31.3976 6.38314 31.9711C6.38314 32.8836 6.48843 33.7916 6.69895 34.6953C6.91834 35.599 7.26049 36.4114 7.72554 37.1327C8.19932 37.8539 8.80911 38.4404 9.55495 38.8923C10.3007 39.3355 11.2044 39.5571 12.2661 39.5571C12.8276 39.5571 13.3585 39.4658 13.8586 39.2833C14.3587 39.0922 14.8106 38.8358 15.2142 38.5143C15.6266 38.1841 15.9863 37.7974 16.2934 37.3543C16.6005 36.9111 16.8462 36.4332 17.0304 35.9205L19.3073 36.8198C18.9738 37.6453 18.5176 38.3709 17.9385 38.9965C17.3594 39.6135 16.697 40.1262 15.9512 40.5346C15.2142 40.943 14.4201 41.2471 13.569 41.447C12.7268 41.6555 11.8756 41.7598 11.0158 41.7598C10.0858 41.7598 9.19083 41.6469 8.33095 41.4209C7.47987 41.195 6.68584 40.8735 5.9488 40.4564C5.21178 40.0393 4.54056 39.5353 3.93515 38.9444C3.33852 38.3536 2.82524 37.6975 2.39531 36.9763C1.97416 36.255 1.64513 35.473 1.40823 34.6301C1.18011 33.7785 1.06604 32.8922 1.06604 31.9711C1.06604 31.0501 1.18011 30.1681 1.40823 29.3252C1.64513 28.4736 1.97416 27.6872 2.39531 26.966C2.82524 26.2361 3.33852 25.5757 3.93515 24.9848C4.54056 24.3939 5.21178 23.8899 5.9488 23.4728C6.68584 23.0558 7.47987 22.7342 8.33095 22.5083C9.19083 22.2824 10.0858 22.1694 11.0158 22.1694C11.9108 22.1694 12.7838 22.2737 13.6348 22.4823C14.4947 22.6908 15.2932 23.008 16.0302 23.4337C16.7672 23.8509 17.4209 24.3809 17.9911 25.0239C18.5703 25.6582 19.0265 26.4056 19.3599 27.2658Z" fill="white"/>
</svg>
