<svg width="178" height="65" viewBox="0 0 178 65" fill="none" xmlns="http://www.w3.org/2000/svg">
<path d="M40.5309 6.72165C40.5309 7.10574 40.4561 7.46962 40.3064 7.81328C40.1667 8.15695 39.9721 8.45513 39.7226 8.70782C39.4732 8.96051 39.1788 9.16266 38.8396 9.31428C38.5002 9.45579 38.141 9.52654 37.7618 9.52654C37.3827 9.52654 37.0234 9.45579 36.6841 9.31428C36.3548 9.16266 36.0654 8.96051 35.816 8.70782C35.5665 8.45513 35.3669 8.15695 35.2172 7.81328C35.0775 7.46962 35.0078 7.10574 35.0078 6.72165C35.0078 6.33756 35.0775 5.97873 35.2172 5.64517C35.3669 5.30151 35.5665 5.00333 35.816 4.75064C36.0654 4.49794 36.3548 4.30084 36.6841 4.15933C37.0234 4.00772 37.3827 3.93192 37.7618 3.93192C38.141 3.93192 38.5002 4.00772 38.8396 4.15933C39.1788 4.30084 39.4732 4.49794 39.7226 4.75064C39.9721 5.00333 40.1667 5.30151 40.3064 5.64517C40.4561 5.97873 40.5309 6.33756 40.5309 6.72165ZM40.3064 28.4634H35.2322V10.9669H40.3064V28.4634ZM53.4482 28.4634H48.898L42.6115 10.9518H47.6706L52.2807 24.9004L56.7561 10.9518H60.2587L53.4482 28.4634ZM67.7127 6.72165C67.7127 7.10574 67.6378 7.46962 67.4883 7.81328C67.3485 8.15695 67.1539 8.45513 66.9045 8.70782C66.655 8.96051 66.3606 9.16266 66.0213 9.31428C65.6821 9.45579 65.3228 9.52654 64.9436 9.52654C64.5644 9.52654 64.2053 9.45579 63.8659 9.31428C63.5367 9.16266 63.2473 8.96051 62.9978 8.70782C62.7484 8.45513 62.5488 8.15695 62.3991 7.81328C62.2594 7.46962 62.1895 7.10574 62.1895 6.72165C62.1895 6.33756 62.2594 5.97873 62.3991 5.64517C62.5488 5.30151 62.7484 5.00333 62.9978 4.75064C63.2473 4.49794 63.5367 4.30084 63.8659 4.15933C64.2053 4.00772 64.5644 3.93192 64.9436 3.93192C65.3228 3.93192 65.6821 4.00772 66.0213 4.15933C66.3606 4.30084 66.655 4.49794 66.9045 4.75064C67.1539 5.00333 67.3485 5.30151 67.4883 5.64517C67.6378 5.97873 67.7127 6.33756 67.7127 6.72165ZM67.4883 28.4634H62.414V10.9669H67.4883V28.4634ZM89.1469 28.4634H84.0877V26.3711C83.4889 27.1999 82.7655 27.8165 81.9174 28.2208C81.0791 28.615 80.1561 28.8121 79.1483 28.8121C77.8311 28.8121 76.6536 28.5745 75.6159 28.0995C74.578 27.6245 73.7 26.9776 72.9814 26.1588C72.263 25.33 71.7142 24.3597 71.335 23.2477C70.9558 22.1359 70.7662 20.9433 70.7662 19.6696C70.7662 18.396 70.9558 17.2034 71.335 16.0915C71.7142 14.9797 72.263 14.0143 72.9814 13.1956C73.7 12.3668 74.578 11.7149 75.6159 11.2398C76.6536 10.7647 77.8311 10.5272 79.1483 10.5272C79.8169 10.5272 80.4505 10.6283 81.0492 10.8305C81.6579 11.0326 82.2117 11.3207 82.7106 11.6946C83.2196 12.0585 83.6636 12.5033 84.0428 13.0289C84.432 13.5443 84.7363 14.1205 84.9559 14.7573L87.2011 10.9518H89.1469V28.4634ZM84.0578 19.6696C84.0578 19.2149 84.0329 18.7347 83.9829 18.2293C83.943 17.7239 83.8681 17.2236 83.7584 16.7283C83.6487 16.233 83.494 15.763 83.2944 15.3183C83.1048 14.8635 82.8553 14.4642 82.546 14.1205C82.2466 13.7668 81.8825 13.4887 81.4534 13.2866C81.0242 13.0845 80.5253 12.9833 79.9565 12.9833C79.3878 12.9833 78.8938 13.0895 78.4747 13.3018C78.0557 13.504 77.6964 13.7819 77.397 14.1356C77.0977 14.4794 76.8482 14.8786 76.6486 15.3335C76.4591 15.7883 76.3094 16.2634 76.1996 16.7586C76.0898 17.2539 76.01 17.7542 75.9601 18.2596C75.9202 18.7549 75.9002 19.2249 75.9002 19.6696C75.9002 20.1144 75.9202 20.5895 75.9601 21.0949C76.01 21.6002 76.0898 22.1005 76.1996 22.5959C76.3094 23.0911 76.4591 23.5662 76.6486 24.021C76.8482 24.4759 77.0977 24.8802 77.397 25.234C77.6964 25.5776 78.0557 25.8556 78.4747 26.0678C78.8938 26.27 79.3878 26.3711 79.9565 26.3711C80.4754 26.3711 80.9344 26.265 81.3336 26.0527C81.7428 25.8304 82.0969 25.5372 82.3963 25.1733C82.7056 24.8094 82.9651 24.395 83.1746 23.93C83.3842 23.4651 83.5538 22.985 83.6836 22.4897C83.8133 21.9944 83.9081 21.5042 83.968 21.019C84.0279 20.5238 84.0578 20.0739 84.0578 19.6696ZM111.06 18.4264C111.06 19.609 110.915 20.8421 110.626 22.1259C110.347 23.4095 109.952 24.6679 109.443 25.9011C108.935 27.1342 108.326 28.2916 107.617 29.3731C106.909 30.4647 106.131 31.4047 105.283 32.1931L103.381 31.147C103.651 30.6416 103.905 30.0755 104.144 29.4488C104.384 28.8222 104.599 28.1601 104.788 27.4627C104.988 26.7552 105.163 26.0274 105.312 25.2794C105.472 24.5315 105.601 23.7936 105.702 23.0659C105.811 22.328 105.891 21.6154 105.941 20.928C106.001 20.2306 106.031 19.5837 106.031 18.9874C106.031 18.5932 106.016 18.1737 105.986 17.729C105.956 17.2742 105.891 16.8243 105.791 16.3796C105.702 15.9247 105.577 15.4901 105.417 15.0757C105.257 14.6612 105.042 14.2974 104.774 13.984C104.514 13.6707 104.194 13.4181 103.815 13.226C103.446 13.034 103.007 12.9379 102.498 12.9379C101.999 12.9379 101.555 13.0541 101.166 13.2866C100.777 13.509 100.433 13.8071 100.133 14.1812C99.834 14.545 99.5745 14.9645 99.3551 15.4396C99.1455 15.9147 98.9709 16.4048 98.8312 16.9103C98.7014 17.4055 98.6067 17.8957 98.5468 18.3809C98.4869 18.866 98.457 19.3008 98.457 19.6849V28.4634H93.3829V10.9518H95.3287L97.6487 15.0302C97.9281 14.353 98.2774 13.7364 98.6965 13.1805C99.1155 12.6246 99.5896 12.1495 100.118 11.7553C100.647 11.3611 101.231 11.0579 101.87 10.8456C102.519 10.6333 103.216 10.5272 103.965 10.5272C105.163 10.5272 106.205 10.7243 107.093 11.1185C107.981 11.5127 108.72 12.0636 109.309 12.7712C109.897 13.4686 110.336 14.3025 110.626 15.2728C110.915 16.233 111.06 17.2842 111.06 18.4264ZM140.502 28.4634H138.556L136.311 24.6578C136.091 25.2946 135.787 25.8707 135.398 26.3863C135.018 26.9017 134.575 27.3465 134.066 27.7204C133.566 28.0843 133.013 28.3673 132.405 28.5695C131.806 28.7717 131.172 28.8727 130.503 28.8727C129.186 28.8727 128.009 28.6352 126.971 28.1601C125.933 27.685 125.055 27.0381 124.336 26.2194C123.618 25.3906 123.069 24.4203 122.69 23.3084C122.311 22.1966 122.121 21.0039 122.121 19.7303C122.121 18.4567 122.311 17.264 122.69 16.1522C123.069 15.0403 123.618 14.075 124.336 13.2563C125.055 12.4376 125.933 11.7907 126.971 11.3156C128.009 10.8405 129.186 10.603 130.503 10.603C131.512 10.603 132.434 10.8001 133.272 11.1943C134.12 11.5885 134.844 12.2051 135.442 13.044V4.50806H140.502V28.4634ZM135.413 19.7303C135.413 19.326 135.383 18.8813 135.323 18.396C135.264 17.9109 135.169 17.4207 135.039 16.9254C134.909 16.4301 134.739 15.9501 134.53 15.485C134.321 15.0201 134.061 14.6056 133.751 14.2418C133.452 13.8779 133.097 13.5899 132.689 13.3776C132.289 13.1553 131.83 13.044 131.311 13.044C130.743 13.044 130.249 13.1502 129.83 13.3625C129.411 13.5646 129.051 13.8425 128.753 14.1963C128.453 14.54 128.203 14.9392 128.004 15.394C127.815 15.8489 127.664 16.324 127.555 16.8193C127.445 17.3145 127.365 17.8149 127.315 18.3203C127.275 18.8155 127.256 19.2855 127.256 19.7303C127.256 20.1751 127.275 20.6501 127.315 21.1555C127.365 21.6508 127.445 22.1461 127.555 22.6413C127.664 23.1366 127.815 23.6167 128.004 24.0817C128.203 24.5366 128.453 24.9409 128.753 25.2946C129.051 25.6383 129.411 25.9163 129.83 26.1284C130.249 26.3307 130.743 26.4317 131.311 26.4317C131.88 26.4317 132.379 26.3307 132.808 26.1284C133.237 25.9263 133.602 25.6535 133.902 25.3097C134.21 24.956 134.459 24.5568 134.65 24.112C134.849 23.6571 135.004 23.1821 135.113 22.6868C135.224 22.1815 135.298 21.6761 135.338 21.1706C135.388 20.6652 135.413 20.1852 135.413 19.7303ZM162.131 28.4634H157.071V26.3711C156.472 27.1999 155.749 27.8165 154.901 28.2208C154.063 28.615 153.14 28.8121 152.132 28.8121C150.815 28.8121 149.638 28.5745 148.599 28.0995C147.562 27.6245 146.683 26.9776 145.965 26.1588C145.247 25.33 144.698 24.3597 144.319 23.2477C143.94 22.1359 143.75 20.9433 143.75 19.6696C143.75 18.396 143.94 17.2034 144.319 16.0915C144.698 14.9797 145.247 14.0143 145.965 13.1956C146.683 12.3668 147.562 11.7149 148.599 11.2398C149.638 10.7647 150.815 10.5272 152.132 10.5272C152.801 10.5272 153.435 10.6283 154.033 10.8305C154.641 11.0326 155.195 11.3207 155.695 11.6946C156.204 12.0585 156.647 12.5033 157.026 13.0289C157.416 13.5443 157.72 14.1205 157.94 14.7573L160.185 10.9518H162.131V28.4634ZM157.042 19.6696C157.042 19.2149 157.017 18.7347 156.967 18.2293C156.927 17.7239 156.853 17.2236 156.742 16.7283C156.633 16.233 156.478 15.763 156.278 15.3183C156.088 14.8635 155.839 14.4642 155.53 14.1205C155.231 13.7668 154.866 13.4887 154.437 13.2866C154.008 13.0845 153.509 12.9833 152.94 12.9833C152.372 12.9833 151.877 13.0895 151.458 13.3018C151.039 13.504 150.68 13.7819 150.381 14.1356C150.082 14.4794 149.832 14.8786 149.632 15.3335C149.443 15.7883 149.293 16.2634 149.184 16.7586C149.073 17.2539 148.994 17.7542 148.944 18.2596C148.904 18.7549 148.884 19.2249 148.884 19.6696C148.884 20.1144 148.904 20.5895 148.944 21.0949C148.994 21.6002 149.073 22.1005 149.184 22.5959C149.293 23.0911 149.443 23.5662 149.632 24.021C149.832 24.4759 150.082 24.8802 150.381 25.234C150.68 25.5776 151.039 25.8556 151.458 26.0678C151.877 26.27 152.372 26.3711 152.94 26.3711C153.459 26.3711 153.918 26.265 154.317 26.0527C154.726 25.8304 155.081 25.5372 155.38 25.1733C155.69 24.8094 155.949 24.395 156.159 23.93C156.368 23.4651 156.538 22.985 156.668 22.4897C156.797 21.9944 156.892 21.5042 156.952 21.019C157.012 20.5238 157.042 20.0739 157.042 19.6696Z" fill="#0060F9"/>
<path d="M34.3342 53.6806C34.3342 52.8821 34.3989 52.0532 34.5287 51.194C34.6684 50.3348 34.8631 49.4758 35.1125 48.6166C35.3719 47.7574 35.6812 46.9084 36.0405 46.0695C36.3998 45.2305 36.8039 44.4269 37.2529 43.6588H40.95C40.7005 44.4168 40.476 45.2103 40.2764 46.0391C40.0869 46.8579 39.9222 47.6816 39.7825 48.5105C39.6527 49.3292 39.548 50.1327 39.4682 50.9212C39.3983 51.7096 39.3633 52.4424 39.3633 53.1196C39.3633 53.5137 39.3784 53.9383 39.4083 54.3931C39.4482 54.8378 39.513 55.2877 39.6028 55.7426C39.6927 56.1872 39.8174 56.6169 39.977 57.0313C40.1467 57.4457 40.3612 57.8146 40.6207 58.138C40.8801 58.4514 41.1944 58.7041 41.5637 58.8961C41.9429 59.0781 42.3869 59.169 42.8958 59.169C43.3948 59.169 43.8388 59.0579 44.228 58.8355C44.6271 58.603 44.9764 58.3048 45.2758 57.941C45.575 57.567 45.8296 57.1425 46.039 56.6674C46.2486 56.1923 46.4182 55.7072 46.548 55.2119C46.6877 54.7065 46.7875 54.2162 46.8474 53.7412C46.9172 53.256 46.9521 52.8214 46.9521 52.4373V43.6588H52.0113V61.1704H50.0655L47.7455 57.0919C47.4561 57.7692 47.1018 58.3857 46.6827 58.9416C46.2736 59.4874 45.8046 59.9574 45.2758 60.3517C44.7469 60.7458 44.1581 61.0491 43.5095 61.2614C42.8709 61.4736 42.1774 61.5797 41.4289 61.5797C40.2316 61.5797 39.1887 61.3827 38.3006 60.9884C37.4126 60.5943 36.6741 60.0484 36.0854 59.351C35.4967 58.6536 35.0576 57.8247 34.7682 56.8644C34.4789 55.8941 34.3342 54.8329 34.3342 53.6806ZM73.9094 51.1334C73.9094 52.316 73.7647 53.5491 73.4754 54.8329C73.196 56.1165 72.8019 57.3749 72.2929 58.6081C71.7841 59.8412 71.1754 60.9986 70.4668 62.0801C69.7583 63.1717 68.98 64.1117 68.1318 64.9001L66.2309 63.854C66.5004 63.3486 66.7548 62.7825 66.9943 62.1558C67.2337 61.5292 67.4483 60.8671 67.6378 60.1697C67.8375 59.4622 68.0121 58.7344 68.1617 57.9864C68.3214 57.2385 68.4511 56.5006 68.5509 55.7729C68.6607 55.035 68.7405 54.3224 68.7904 53.635C68.8503 52.9376 68.8803 52.2907 68.8803 51.6944C68.8803 51.3002 68.8652 50.8807 68.8353 50.436C68.8054 49.9812 68.7405 49.5313 68.6408 49.0866C68.5509 48.6317 68.4262 48.1971 68.2666 47.7827C68.1069 47.3682 67.8924 47.0044 67.6229 46.691C67.3635 46.3777 67.0442 46.1251 66.665 45.933C66.2958 45.741 65.8567 45.6449 65.3478 45.6449C64.8489 45.6449 64.4048 45.7611 64.0156 45.9936C63.6265 46.216 63.2822 46.5141 62.9829 46.8882C62.6835 47.252 62.424 47.6715 62.2046 48.1466C61.995 48.6217 61.8203 49.1118 61.6807 49.6173C61.5509 50.1125 61.4561 50.6027 61.3962 51.0879C61.3364 51.5731 61.3065 52.0078 61.3065 52.3919V61.1704H56.2323V43.6588H58.1781L60.4981 47.7372C60.7776 47.06 61.1268 46.4434 61.5459 45.8875C61.965 45.3316 62.4391 44.8565 62.9678 44.4623C63.4967 44.0681 64.0805 43.7649 64.7191 43.5526C65.3678 43.3403 66.0663 43.2342 66.8147 43.2342C68.0121 43.2342 69.0549 43.4313 69.943 43.8255C70.831 44.2197 71.5695 44.7706 72.1582 45.4782C72.7469 46.1756 73.186 47.0095 73.4754 47.9798C73.7647 48.94 73.9094 49.9912 73.9094 51.1334ZM94.9245 51.1334C94.9245 52.316 94.7798 53.5491 94.4904 54.8329C94.211 56.1165 93.8169 57.3749 93.3079 58.6081C92.7991 59.8412 92.1904 60.9986 91.4819 62.0801C90.7733 63.1717 89.995 64.1117 89.1469 64.9001L87.2459 63.854C87.5154 63.3486 87.7698 62.7825 88.0093 62.1558C88.2487 61.5292 88.4633 60.8671 88.653 60.1697C88.8525 59.4622 89.0272 58.7344 89.1768 57.9864C89.3365 57.2385 89.4661 56.5006 89.566 55.7729C89.6757 55.035 89.7556 54.3224 89.8055 53.635C89.8654 52.9376 89.8953 52.2907 89.8953 51.6944C89.8953 51.3002 89.8803 50.8807 89.8503 50.436C89.8204 49.9812 89.7556 49.5313 89.6558 49.0866C89.566 48.6317 89.4412 48.1971 89.2816 47.7827C89.1219 47.3682 88.9074 47.0044 88.638 46.691C88.3785 46.3777 88.0592 46.1251 87.68 45.933C87.3108 45.741 86.8717 45.6449 86.3628 45.6449C85.8639 45.6449 85.4199 45.7611 85.0306 45.9936C84.6415 46.216 84.2973 46.5141 83.9979 46.8882C83.6985 47.252 83.4391 47.6715 83.2196 48.1466C83.01 48.6217 82.8354 49.1118 82.6957 49.6173C82.5659 50.1125 82.4711 50.6027 82.4113 51.0879C82.3515 51.5731 82.3215 52.0078 82.3215 52.3919V61.1704H77.2473V37.2151H82.3065V46.2362C82.9551 45.276 83.7484 44.5381 84.6864 44.0226C85.6343 43.497 86.6821 43.2342 87.8297 43.2342C89.0272 43.2342 90.0699 43.4313 90.958 43.8255C91.8461 44.2197 92.5845 44.7706 93.1733 45.4782C93.762 46.1756 94.201 47.0095 94.4904 47.9798C94.7798 48.94 94.9245 49.9912 94.9245 51.1334ZM115.67 61.1704H110.611V59.0781C110.013 59.9069 109.289 60.5235 108.441 60.9278C107.602 61.322 106.679 61.5191 105.672 61.5191C104.355 61.5191 103.177 61.2815 102.139 60.8065C101.101 60.3315 100.223 59.6846 99.5047 58.8658C98.7862 58.037 98.2374 57.0667 97.8582 55.9548C97.479 54.8429 97.2895 53.6503 97.2895 52.3766C97.2895 51.103 97.479 49.9104 97.8582 48.7985C98.2374 47.6867 98.7862 46.7213 99.5047 45.9026C100.223 45.0738 101.101 44.4219 102.139 43.9468C103.177 43.4718 104.355 43.2342 105.672 43.2342C106.34 43.2342 106.974 43.3353 107.572 43.5375C108.181 43.7396 108.735 44.0277 109.234 44.4016C109.743 44.7655 110.187 45.2103 110.566 45.7359C110.956 46.2513 111.259 46.8275 111.479 47.4643L113.724 43.6588H115.67V61.1704ZM110.581 52.3766C110.581 51.9219 110.556 51.4417 110.506 50.9363C110.466 50.4309 110.392 49.9306 110.281 49.4353C110.172 48.94 110.018 48.47 109.817 48.0253C109.628 47.5705 109.379 47.1712 109.069 46.8275C108.77 46.4738 108.405 46.1957 107.976 45.9936C107.548 45.7915 107.048 45.6903 106.48 45.6903C105.911 45.6903 105.417 45.7965 104.998 46.0088C104.579 46.211 104.22 46.4889 103.921 46.8426C103.621 47.1864 103.372 47.5856 103.172 48.0405C102.982 48.4953 102.832 48.9704 102.723 49.4656C102.613 49.9609 102.533 50.4612 102.484 50.9666C102.443 51.4619 102.424 51.9319 102.424 52.3766C102.424 52.8214 102.443 53.2965 102.484 53.8019C102.533 54.3072 102.613 54.8075 102.723 55.3029C102.832 55.7981 102.982 56.2732 103.172 56.728C103.372 57.1829 103.621 57.5872 103.921 57.941C104.22 58.2846 104.579 58.5626 104.998 58.7748C105.417 58.977 105.911 59.0781 106.48 59.0781C106.998 59.0781 107.458 58.972 107.857 58.7597C108.266 58.5374 108.62 58.2442 108.919 57.8803C109.229 57.5164 109.488 57.102 109.698 56.637C109.907 56.1721 110.077 55.692 110.207 55.1967C110.336 54.7014 110.432 54.2112 110.491 53.726C110.551 53.2308 110.581 52.7809 110.581 52.3766Z" fill="#E3008C"/>
<path d="M0 49.0799C0.0860178 50.0719 0.252299 51.039 0.499033 51.981C0.892391 53.4125 1.43872 54.7406 2.13802 55.9655C2.8519 57.1904 3.70418 58.3046 4.69486 59.308C5.70011 60.3115 6.81462 61.1675 8.03841 61.8757C9.26218 62.5841 10.5807 63.1302 11.9938 63.5139C12.1805 63.564 12.3681 63.6109 12.5569 63.6544H0V49.0799ZM31.8806 63.6544H20.2914C20.4248 63.6239 20.5582 63.5918 20.6914 63.5581C22.1046 63.2187 23.423 62.7022 24.6469 62.0086C25.8852 61.315 26.9852 60.4443 27.9467 59.3965C28.9082 58.3341 29.6658 57.1018 30.2194 55.6998L26.4388 54.1725C26.1329 55.0432 25.725 55.8549 25.2151 56.6074C24.7051 57.3601 24.1079 58.0167 23.423 58.5775C22.7529 59.1236 22.0026 59.5589 21.1722 59.8835C20.3418 60.1935 19.4603 60.3485 18.5279 60.3485C16.7651 60.3485 15.2646 59.9721 14.0262 59.2194C12.7878 58.4521 11.7753 57.4559 10.9886 56.2311C10.2164 55.0062 9.64827 53.6264 9.28404 52.0917C8.93438 50.5569 8.75956 49.0149 8.75956 47.4653C8.75956 46.4913 8.84698 45.4952 9.0218 44.477C9.19662 43.4587 9.46615 42.4773 9.83037 41.5328C10.1946 40.5736 10.6462 39.6735 11.1853 38.8323C11.7243 37.9911 12.3508 37.2533 13.0646 36.6187C13.7931 35.9841 14.609 35.4898 15.5123 35.1356C16.4301 34.7666 17.4353 34.5822 18.5279 34.5822C19.5478 34.5822 20.4875 34.7446 21.347 35.0691C22.2066 35.379 22.9715 35.8218 23.6416 36.3973C24.3263 36.9581 24.9091 37.637 25.3899 38.4338C25.8852 39.2307 26.2786 40.1088 26.5699 41.068L30.3069 39.4742C29.7533 38.0133 28.9957 36.7441 28.0341 35.6669C27.0872 34.5748 26.0018 33.6746 24.778 32.9663C23.5668 32.2505 22.2557 31.7157 20.8447 31.3615H31.8806V63.6544ZM11.9938 31.3946C10.5807 31.7783 9.26218 32.3243 8.03841 33.0326C6.81462 33.741 5.70011 34.597 4.69486 35.6004C3.70418 36.6039 2.8519 37.7254 2.13802 38.9651C1.43872 40.19 0.892391 41.5255 0.499033 42.9717C0.252304 43.9041 0.0860194 44.8647 0 45.8535V31.3615H12.1194C12.0775 31.3723 12.0356 31.3834 11.9938 31.3946Z" fill="#E3008C"/>
<path d="M12.2002 31.3615H0V0H0.632846L12.2002 31.3615ZM31.8806 31.3615H20.2074L31.1727 0H31.8806V31.3615ZM18.0514 25.2447L9.47154 0H25.8141L18.0514 25.2447Z" fill="#0060F9"/>
</svg>
